<?xml version="1.0" encoding="UTF-8" standalone="no"?>
<!-- Made by gio1135 using Gravit.io -->

<svg
   xmlns:dc="http://purl.org/dc/elements/1.1/"
   xmlns:cc="http://creativecommons.org/ns#"
   xmlns:rdf="http://www.w3.org/1999/02/22-rdf-syntax-ns#"
   xmlns:svg="http://www.w3.org/2000/svg"
   xmlns="http://www.w3.org/2000/svg"
   xmlns:xlink="http://www.w3.org/1999/xlink"
   xmlns:sodipodi="http://sodipodi.sourceforge.net/DTD/sodipodi-0.dtd"
   xmlns:inkscape="http://www.inkscape.org/namespaces/inkscape"
   style="isolation:isolate"
   viewBox="0 0 800 800"
   width="800"
   height="800"
   version="1.1"
   id="svg41"
   sodipodi:docname="icon.svg"
   inkscape:version="0.92.3 (2405546, 2018-03-11)">
  <metadata
     id="metadata45">
    <rdf:RDF>
      <cc:Work
         rdf:about="">
        <dc:format>image/svg+xml</dc:format>
        <dc:type
           rdf:resource="http://purl.org/dc/dcmitype/StillImage" />
      </cc:Work>
    </rdf:RDF>
  </metadata>
  <sodipodi:namedview
     pagecolor="#ffffff"
     bordercolor="#666666"
     borderopacity="1"
     objecttolerance="10"
     gridtolerance="10"
     guidetolerance="10"
     inkscape:pageopacity="0"
     inkscape:pageshadow="2"
     inkscape:window-width="2256"
     inkscape:window-height="1424"
     id="namedview43"
     showgrid="false"
     inkscape:snap-global="false"
     inkscape:snap-nodes="false"
     inkscape:snap-bbox="true"
     inkscape:snap-bbox-midpoints="true"
     inkscape:snap-others="false"
     inkscape:zoom="0.59"
     inkscape:cx="-1.2629975"
     inkscape:cy="364.28131"
     inkscape:window-x="-11"
     inkscape:window-y="-11"
     inkscape:window-maximized="1"
     inkscape:current-layer="layer2" />
  <defs
     id="defs5">
    <clipPath
       id="_clipPath_WSMg3MB2SE1NraJ1nyjih3IvGqHIGkkg">
      <rect
         width="800"
         height="800"
         id="rect2" />
    </clipPath>
    <clipPath
       id="SVGID_6_">
      <use
         height="100%"
         width="100%"
         y="0"
         x="0"
         style="overflow:visible"
         xlink:href="#SVGID_5_"
         overflow="visible"
         id="use28" />
    </clipPath>
    <clipPath
       id="SVGID_8_">
      <use
         height="100%"
         width="100%"
         y="0"
         x="0"
         style="overflow:visible"
         xlink:href="#SVGID_7_"
         overflow="visible"
         id="use46" />
    </clipPath>
    <clipPath
       id="SVGID_10_">
      <use
         height="100%"
         width="100%"
         y="0"
         x="0"
         style="overflow:visible"
         xlink:href="#SVGID_9_"
         overflow="visible"
         id="use63" />
    </clipPath>
    <clipPath
       id="clipPath887">
      <use
         height="100%"
         width="100%"
         y="0"
         x="0"
         style="overflow:visible"
         xlink:href="#SVGID_9_"
         overflow="visible"
         id="use885" />
    </clipPath>
    <clipPath
       id="clipPath891">
      <use
         height="100%"
         width="100%"
         y="0"
         x="0"
         style="overflow:visible"
         xlink:href="#SVGID_9_"
         overflow="visible"
         id="use889" />
    </clipPath>
    <clipPath
       id="clipPath895">
      <use
         height="100%"
         width="100%"
         y="0"
         x="0"
         style="overflow:visible"
         xlink:href="#SVGID_9_"
         overflow="visible"
         id="use893" />
    </clipPath>
    <linearGradient
       id="SVGID_11_"
       gradientUnits="userSpaceOnUse"
       x1="219.149"
       y1="344.49899"
       x2="280.47198"
       y2="405.82199"
       gradientTransform="translate(0,-164)">
      <stop
         offset="0"
         stop-color="#1A237E"
         stop-opacity=".2"
         id="stop83" />
      <stop
         offset="1"
         stop-color="#1A237E"
         stop-opacity=".02"
         id="stop85" />
    </linearGradient>
    <path
       inkscape:connector-curvature="0"
       id="SVGID_5_"
       d="m 353,75 h 872 V 267 H 353 Z" />
    <path
       inkscape:connector-curvature="0"
       style="opacity:0.54000005;enable-background:new"
       id="SVGID_7_"
       class="st5"
       d="m 353,75 h 872 V 267 H 353 Z" />
    <path
       inkscape:connector-curvature="0"
       id="SVGID_9_"
       d="M 284.6,184.8 249,148 v 50 l -18,-18 v 11.1 c 0,4.9 -4,8.9 -8.9,8.9 h -44.2 c -2.1,0 -4,-0.7 -5.6,-2 l 56.2,56.2 c 30.4,-9.6 53,-36.7 56.1,-69.4 z" />
  </defs>
  <path
     class="st3"
     d="M 2496.1086,539.17974 V 92.112336 h 136.6581 c 68.8172,0 123.4804,20.498724 164.966,61.984234 40.9974,41.48552 61.9842,95.17265 61.9842,161.54947 0,66.37682 -20.4987,120.06395 -61.9842,161.54947 -40.9975,41.48551 -96.1488,61.98423 -164.966,61.98423 z m 57.5916,-55.15133 h 79.5546 c 51.7349,0 92.7323,-14.64194 122.9923,-44.4139 30.2601,-29.77195 45.3901,-70.7694 45.3901,-124.45653 0,-52.71101 -15.13,-94.19652 -45.3901,-123.96848 -30.26,-29.77195 -71.2574,-44.90196 -122.9923,-44.90196 h -79.5546 z m 633.0201,55.15133 H 3131.569 V 496.7181 h -2.4403 c -8.7852,14.64195 -21.9629,26.84357 -40.0213,37.09293 -18.0584,10.24936 -37.093,15.13001 -56.6156,15.13001 -38.5571,0 -67.3529,-11.71356 -87.3636,-35.14067 -20.0106,-23.42711 -29.7719,-54.66326 -29.7719,-93.70845 v -187.4169 h 57.5916 v 178.14367 c 0,57.10358 25.3794,85.41134 75.6501,85.41134 23.9152,0 42.9497,-9.76129 58.0797,-28.79582 15.13,-19.03453 22.451,-40.99745 22.451,-66.37682 V 232.18695 h 57.5916 z m 93.7085,-269.4118 c 29.7719,-31.23615 67.3529,-46.36616 113.231,-46.36616 45.8781,0 83.4591,15.61808 113.2311,46.36616 29.7719,31.23615 44.4139,69.79328 44.4139,116.6475 0,46.85423 -14.642,85.41135 -44.4139,116.6475 -29.772,31.23615 -67.353,46.36616 -113.2311,46.36616 -45.8781,0 -83.4591,-15.61807 -113.231,-46.36616 -29.772,-31.23615 -44.4139,-69.79327 -44.4139,-116.6475 0,-46.85422 14.6419,-85.89941 44.4139,-116.6475 z m 42.4616,196.69014 c 20.0107,20.01066 43.4378,30.26002 70.2814,30.26002 26.8435,0 50.2707,-10.24936 70.2813,-30.26002 20.0107,-20.01066 29.772,-46.85423 29.772,-80.04264 0,-33.18841 -9.7613,-60.03197 -29.772,-80.04263 -20.0106,-20.01066 -43.4378,-30.26002 -70.2813,-30.26002 -26.8436,0 -50.2707,10.24936 -70.2814,30.26002 -20.0106,20.01066 -29.7719,46.85422 -29.7719,80.04263 0,33.18841 10.2493,60.03198 29.7719,80.04264 z"
     id="path20"
     style="opacity:0.5;stroke-width:4.88064861"
     inkscape:connector-curvature="0" />
  <g
     inkscape:groupmode="layer"
     id="layer2"
     inkscape:label="Layer 2"
     sodipodi:insensitive="true">
    <g
       style="isolation:isolate"
       id="g38"
       transform="matrix(4.9159592,0,0,4.9159592,-602.01175,-464.35784)">
      <g
         id="g40"
         class="st5"
         style="opacity:0.54000005;enable-background:new">
        <defs
           id="defs42">
          <path
             d="m 353,75 h 872 V 267 H 353 Z"
             class="st5"
             id="path951"
             style="opacity:0.54000005;enable-background:new"
             inkscape:connector-curvature="0" />
        </defs>
        <clipPath
           id="clipPath920">
          <use
             id="use918"
             overflow="visible"
             xlink:href="#SVGID_7_"
             style="overflow:visible"
             x="0"
             y="0"
             width="100%"
             height="100%" />
        </clipPath>
        <g
           clip-path="url(#SVGID_8_)"
           id="g48"
           class="st6">
          <path
             d="m 285,108 c 0,-6.6 -5.4,-12 -12,-12 h -69 c -50.2,0 -89.7,45.7 -79.3,97.7 6.4,32 31.9,56.9 64,62.8 50,9.2 93.8,-27.5 96.2,-75.5 h 0.1 z"
             class="st7"
             id="XMLID_50_"
             style="fill:#4285f4"
             inkscape:connector-curvature="0" />
          <path
             id="path51"
             d="m 188.7,255.5 c -32.1,-5.9 -57.6,-30.8 -64,-62.8 -1.1,-5.5 -1.6,-10.9 -1.7,-16.2 0,5.6 0.5,11.4 1.7,17.3 6.4,32 31.9,56.9 64,62.8 50,9.2 93.8,-27.4 96.2,-75.4 h 0.1 v -1 h -0.1 c -2.5,47.8 -46.2,84.4 -96.2,75.3 z"
             class="st8"
             style="opacity:0.2;fill:#1a237e;enable-background:new"
             inkscape:connector-curvature="0" />
          <path
             id="path53"
             d="m 273,96 h -69 c -44.9,0 -81.2,36.5 -81,81.4 C 123.3,133 159.4,97 204,97 h 69 c 6.6,0 12,5.4 12,12 v -1 c 0,-6.6 -5.4,-12 -12,-12 z"
             class="st9"
             style="opacity:0.2;fill:#ffffff;enable-background:new"
             inkscape:connector-curvature="0" />
          <path
             id="path55"
             d="m 177.9,146 h 44.2 c 4.9,0 8.9,4 8.9,8.9 v -1 c 0,-4.9 -4,-8.9 -8.9,-8.9 h -44.2 c -4.9,0 -8.9,4 -8.9,8.9 v 1 c 0,-4.9 4,-8.9 8.9,-8.9 z m 53.1,19 v 1 l 18,-18 v -1 z"
             class="st10"
             style="fill:#ffffff"
             inkscape:connector-curvature="0" />
          <path
             id="path57"
             d="m 222.1,200 h -44.2 c -4.9,0 -8.9,-4 -8.9,-8.9 v 1 c 0,4.9 4,8.9 8.9,8.9 h 44.2 c 4.9,0 8.9,-4 8.9,-8.9 v -1 c 0,4.9 -4,8.9 -8.9,8.9 z m 8.9,-19 18,18 v -1 l -18,-18 z"
             class="st8"
             style="opacity:0.2;fill:#1a237e;enable-background:new"
             inkscape:connector-curvature="0" />
          <defs
             id="defs59">
            <path
               d="M 284.6,184.8 249,148 v 50 l -18,-18 v 11.1 c 0,4.9 -4,8.9 -8.9,8.9 h -44.2 c -2.1,0 -4,-0.7 -5.6,-2 l 56.2,56.2 c 30.4,-9.6 53,-36.7 56.1,-69.4 z"
               id="path961"
               inkscape:connector-curvature="0" />
          </defs>
          <clipPath
             id="clipPath931">
            <use
               id="use929"
               overflow="visible"
               xlink:href="#SVGID_9_"
               style="overflow:visible"
               x="0"
               y="0"
               width="100%"
               height="100%" />
          </clipPath>
          <path
             clip-path="url(#SVGID_10_)"
             id="path65"
             d="m 249,198 -18,-18 v 11.1 c 0,4.9 -4,8.9 -8.9,8.9 h -44.2 c -4.9,0 -8.9,-4 -8.9,-8.9 V 173 h 80 z"
             class="st11"
             style="fill:#f5f5f5"
             inkscape:connector-curvature="0" />
          <path
             clip-path="url(#SVGID_10_)"
             id="path67"
             d="m 251.8,148 0.4,0.4 -66.1,66.2 -13.8,-13.8 V 148 Z m 0.4,0.4 32.4,32.4 v 57.9 l -15.5,15.5 h -43.4 l -39.6,-39.6 z m 16.9,105.8 15.5,-15.5 v 15.5 z"
             class="st12"
             style="fill:#1a237e"
             inkscape:connector-curvature="0" />
          <path
             clip-path="url(#SVGID_10_)"
             id="path69"
             d="m 249,148 -18,18 v -11.1 c 0,-4.9 -4,-8.9 -8.9,-8.9 h -44.2 c -4.9,0 -8.9,4 -8.9,8.9 V 173 h 80 z"
             class="st13"
             style="fill:#e1e1e1"
             inkscape:connector-curvature="0" />
          <path
             clip-path="url(#SVGID_10_)"
             id="path71"
             d="M 113,76 H 305 V 268 H 113 Z"
             class="st14 st2"
             style="fill:none"
             inkscape:connector-curvature="0" />
        </g>
      </g>
      <path
         d="m 285,107 c 0,-6.6 -5.4,-12 -12,-12 h -69 c -50.2,0 -89.7,45.7 -79.3,97.7 6.4,32 31.9,56.9 64,62.8 50,9.2 93.8,-27.5 96.2,-75.5 h 0.1 z"
         class="st7"
         id="XMLID_12_"
         style="fill:#4285f4"
         inkscape:connector-curvature="0" />
      <path
         id="path74"
         d="m 188.7,254.5 c -32.1,-5.9 -57.6,-30.8 -64,-62.8 -1.1,-5.5 -1.6,-10.9 -1.7,-16.2 0,5.6 0.5,11.4 1.7,17.3 6.4,32 31.9,56.9 64,62.8 50,9.2 93.8,-27.4 96.2,-75.4 h 0.1 v -1 h -0.1 c -2.5,47.8 -46.2,84.4 -96.2,75.3 z"
         class="st8"
         style="opacity:0.2;fill:#1a237e;enable-background:new"
         inkscape:connector-curvature="0" />
      <path
         id="path76"
         d="m 273,95 h -69 c -44.9,0 -81.2,36.5 -81,81.4 C 123.3,132 159.4,96 204,96 h 69 c 6.6,0 12,5.4 12,12 v -1 c 0,-6.6 -5.4,-12 -12,-12 z"
         class="st9"
         style="opacity:0.2;fill:#ffffff;enable-background:new"
         inkscape:connector-curvature="0" />
      <path
         id="path78"
         d="m 177.9,145 h 44.2 c 4.9,0 8.9,4 8.9,8.9 v -1 c 0,-4.9 -4,-8.9 -8.9,-8.9 h -44.2 c -4.9,0 -8.9,4 -8.9,8.9 v 1 c 0,-4.9 4,-8.9 8.9,-8.9 z m 53.1,19 v 1 l 18,-18 v -1 z"
         class="st10"
         style="fill:#ffffff"
         inkscape:connector-curvature="0" />
      <path
         id="path80"
         d="m 222.1,199 h -44.2 c -4.9,0 -8.9,-4 -8.9,-8.9 v 1 c 0,4.9 4,8.9 8.9,8.9 h 44.2 c 4.9,0 8.9,-4 8.9,-8.9 v -1 c 0,4.9 -4,8.9 -8.9,8.9 z m 8.9,-19 18,18 v -1 l -18,-18 z"
         class="st8"
         style="opacity:0.2;fill:#1a237e;enable-background:new"
         inkscape:connector-curvature="0" />
      <linearGradient
         gradientTransform="translate(0,-164)"
         y2="405.82199"
         x2="280.47198"
         y1="344.49899"
         x1="219.149"
         gradientUnits="userSpaceOnUse"
         id="linearGradient948">
        <stop
           id="stop944"
           stop-opacity=".2"
           stop-color="#1A237E"
           offset="0" />
        <stop
           id="stop946"
           stop-opacity=".02"
           stop-color="#1A237E"
           offset="1" />
      </linearGradient>
      <path
         id="path87"
         d="M 284.6,183.8 249,147 v 50 l -18,-18 v 11.1 c 0,4.9 -4,8.9 -8.9,8.9 h -44.2 c -2.1,0 -4,-0.7 -5.6,-2 l 56.2,56.2 c 30.4,-9.6 53,-36.7 56.1,-69.4 z"
         class="st15"
         style="fill:url(#SVGID_11_)"
         inkscape:connector-curvature="0" />
      <path
         id="path89"
         d="m 249,197 -18,-18 v 11.1 c 0,4.9 -4,8.9 -8.9,8.9 h -44.2 c -4.9,0 -8.9,-4 -8.9,-8.9 v -22.5 h 80 z"
         class="st16"
         style="fill:#f5f5f5"
         inkscape:connector-curvature="0" />
      <path
         id="path91"
         d="m 249,147 -18,18 v -11.1 c 0,-4.9 -4,-8.9 -8.9,-8.9 h -44.2 c -4.9,0 -8.9,4 -8.9,8.9 V 172 h 80 z"
         class="st17"
         style="fill:#e1e1e1"
         inkscape:connector-curvature="0" />
      <path
         id="path93"
         d="M 113,75 H 305 V 267 H 113 Z"
         class="st2"
         style="fill:none"
         inkscape:connector-curvature="0" />
    </g>
  </g>
</svg>
